<svg width="23" height="23" viewBox="0 0 23 23" fill="none" xmlns="http://www.w3.org/2000/svg">
<path fill-rule="evenodd" clip-rule="evenodd" d="M21.3343 0H1.73362C0.796016 0 0 0.741391 0 1.65497V21.3442C0 22.2586 0.522396 23 1.4596 23H21.0602C21.9991 23 23 22.2586 23 21.3442V1.65497C23 0.741391 22.2727 0 21.3343 0ZM8.7617 8.7617H11.8581V10.3401H11.892C12.3639 9.48903 13.7581 8.62509 15.4822 8.62509C18.7909 8.62509 19.7145 10.3819 19.7145 13.6356V19.7145H16.4285V14.235C16.4285 12.7783 15.8469 11.5 14.4867 11.5C12.835 11.5 12.0476 12.6181 12.0476 14.454V19.7145H8.7617V8.7617ZM3.28554 19.7145H6.57149V8.7617H3.28554V19.7145ZM6.98212 4.92851C6.98212 6.06315 6.06315 6.98212 4.92851 6.98212C3.79388 6.98212 2.87491 6.06315 2.87491 4.92851C2.87491 3.79388 3.79388 2.87491 4.92851 2.87491C6.06315 2.87491 6.98212 3.79388 6.98212 4.92851Z" fill="white"/>
</svg>
